<?xml version="1.0" encoding="UTF-8" standalone="no"?>
<!-- Created with Inkscape (http://www.inkscape.org/) -->

<svg
   xmlns:dc="http://purl.org/dc/elements/1.1/"
   xmlns:cc="http://creativecommons.org/ns#"
   xmlns:rdf="http://www.w3.org/1999/02/22-rdf-syntax-ns#"
   xmlns:svg="http://www.w3.org/2000/svg"
   xmlns="http://www.w3.org/2000/svg"
   xmlns:sodipodi="http://sodipodi.sourceforge.net/DTD/sodipodi-0.dtd"
   xmlns:inkscape="http://www.inkscape.org/namespaces/inkscape"
   width="210mm"
   height="297mm"
   viewBox="0 0 210 297"
   version="1.1"
   id="svg2251"
   inkscape:version="0.92.2 5c3e80d, 2017-08-06"
   sodipodi:docname="infinite.svg">
  <defs
     id="defs2245" />
  <sodipodi:namedview
     id="base"
     pagecolor="#ffffff"
     bordercolor="#666666"
     borderopacity="1.0"
     inkscape:pageopacity="0.0"
     inkscape:pageshadow="2"
     inkscape:zoom="1"
     inkscape:cx="270"
     inkscape:cy="614.62838"
     inkscape:document-units="px"
     inkscape:current-layer="layer1"
     showgrid="false"
     showborder="false"
     inkscape:window-width="1280"
     inkscape:window-height="681"
     inkscape:window-x="0"
     inkscape:window-y="1"
     inkscape:window-maximized="1" />
  <metadata
     id="metadata2248">
    <rdf:RDF>
      <cc:Work
         rdf:about="">
        <dc:format>image/svg+xml</dc:format>
        <dc:type
           rdf:resource="http://purl.org/dc/dcmitype/StillImage" />
        <dc:title></dc:title>
      </cc:Work>
    </rdf:RDF>
  </metadata>
  <g
     inkscape:label="Layer 1"
     inkscape:groupmode="layer"
     id="layer1">
    <path
       style="color:#000000;font-style:normal;font-variant:normal;font-weight:normal;font-stretch:normal;font-size:medium;line-height:normal;font-family:sans-serif;font-variant-ligatures:normal;font-variant-position:normal;font-variant-caps:normal;font-variant-numeric:normal;font-variant-alternates:normal;font-feature-settings:normal;text-indent:0;text-align:start;text-decoration:none;text-decoration-line:none;text-decoration-style:solid;text-decoration-color:#000000;letter-spacing:normal;word-spacing:normal;text-transform:none;writing-mode:lr-tb;direction:ltr;text-orientation:mixed;dominant-baseline:auto;baseline-shift:baseline;text-anchor:start;white-space:normal;shape-padding:0;clip-rule:nonzero;display:inline;overflow:visible;visibility:visible;opacity:1;isolation:auto;mix-blend-mode:normal;color-interpolation:sRGB;color-interpolation-filters:linearRGB;solid-color:#000000;solid-opacity:1;vector-effect:none;fill:#ff0000;fill-opacity:1;fill-rule:nonzero;stroke:none;stroke-width:4.21031475;stroke-linecap:round;stroke-linejoin:round;stroke-miterlimit:4;stroke-dasharray:none;stroke-dashoffset:0;stroke-opacity:1;color-rendering:auto;image-rendering:auto;shape-rendering:auto;text-rendering:auto;enable-background:accumulate"
       d="m 46.77684,98.619657 a 2.1053679,2.1053679 0 0 0 -0.320394,0.03307 c -6.007007,0.117599 -12.007775,2.45901 -16.595369,7.0466 -9.338863,9.33886 -9.454031,24.52479 -0.181898,33.7969 9.272114,9.27212 24.458033,9.15749 33.796895,-0.18139 2.730516,-2.7305 9.374019,-8.88355 12.940297,-12.17134 3.56579,3.28782 10.208306,9.44091 12.938745,12.17135 9.338755,9.33875 24.522824,9.45339 33.794834,0.18138 9.27202,-9.27199 9.15914,-24.45741 -0.17984,-33.79638 -4.66975,-4.66976 -10.80375,-7.042404 -16.91782,-7.080192 -6.11441,-0.03779 -12.243088,2.264382 -16.879074,6.900352 -2.685217,2.68522 -9.227011,8.73205 -12.758395,11.98067 -3.531325,-3.24856 -10.073627,-9.29539 -12.758911,-11.98066 -4.553198,-4.55321 -10.547766,-6.826483 -16.552993,-6.871422 a 2.1053679,2.1053679 0 0 0 -0.312118,-0.02897 l 1.2e-5,0.0021 c -0.0045,-1.73e-4 -0.0094,-0.002 -0.01405,-0.0017 z m 0.03928,7.079673 c 4.298768,-0.0276 8.559188,1.57512 11.822019,4.83795 3.39011,3.3901 9.912355,9.33776 12.587856,11.78532 -2.688655,2.46456 -9.332362,8.53758 -12.769249,11.97447 -6.660753,6.66075 -17.231978,6.70557 -23.757719,0.17983 -6.525743,-6.52573 -6.481439,-17.09696 0.179319,-23.75772 3.330171,-3.33017 7.639198,-4.99227 11.937774,-5.01985 z m 59.198965,-1e-5 c 4.29856,0.0276 8.60527,1.68942 11.93571,5.01985 6.66088,6.6609 6.70699,17.23213 0.18138,23.75773 -6.5256,6.52562 -17.09916,6.48079 -23.759793,-0.17983 -3.436601,-3.43661 -10.078371,-9.50944 -12.767174,-11.97447 2.676075,-2.44809 9.197971,-8.39545 12.587863,-11.78533 3.262827,-3.26282 7.523264,-4.86552 11.822014,-4.83795 z"
       id="path2859"
       inkscape:connector-curvature="0" />
    <rect
       style="opacity:1;fill:#000000;fill-opacity:0;stroke:none;stroke-width:2.11666656;stroke-miterlimit:4;stroke-dasharray:none"
       id="rect2798"
       width="64.558334"
       height="64.558334"
       x="-39.952084"
       y="95.122917" />
    <path
       style="color:#000000;font-style:normal;font-variant:normal;font-weight:normal;font-stretch:normal;font-size:medium;line-height:normal;font-family:sans-serif;font-variant-ligatures:normal;font-variant-position:normal;font-variant-caps:normal;font-variant-numeric:normal;font-variant-alternates:normal;font-feature-settings:normal;text-indent:0;text-align:start;text-decoration:none;text-decoration-line:none;text-decoration-style:solid;text-decoration-color:#000000;letter-spacing:normal;word-spacing:normal;text-transform:none;writing-mode:lr-tb;direction:ltr;text-orientation:mixed;dominant-baseline:auto;baseline-shift:baseline;text-anchor:start;white-space:normal;shape-padding:0;clip-rule:nonzero;display:inline;overflow:visible;visibility:visible;opacity:1;isolation:auto;mix-blend-mode:normal;color-interpolation:sRGB;color-interpolation-filters:linearRGB;solid-color:#000000;solid-opacity:1;vector-effect:none;fill:#ffffff;fill-opacity:1;fill-rule:nonzero;stroke:none;stroke-width:2.887398;stroke-linecap:round;stroke-linejoin:round;stroke-miterlimit:4;stroke-dasharray:none;stroke-dashoffset:0;stroke-opacity:1;color-rendering:auto;image-rendering:auto;shape-rendering:auto;text-rendering:auto;enable-background:accumulate"
       d="m 31.349408,107.18754 c -8.541362,8.54136 -8.637267,22.36538 -0.181973,30.82067 8.45528,8.45527 22.278942,8.35974 30.8203,-0.18161 3.402134,-3.40214 12.092863,-11.4019 14.427388,-13.54603 l 2.111688,-1.95822 c 1.45726,-1.33266 10.444613,-9.5406 14.177449,-13.27342 3.668951,-3.66896 8.48908,-5.48582 13.32422,-5.45481 4.83514,0.031 9.68423,1.91055 13.41009,5.63641 7.45175,7.45175 7.51989,19.3968 0.18198,26.73468 -7.3379,7.3379 -19.28476,7.2716 -26.736512,-0.18014 -3.151879,-3.15189 -9.768029,-9.24989 -12.808631,-12.04128 l -2.112054,1.96224 c 3.342744,3.07835 9.954579,9.19527 12.879888,12.12056 8.541362,8.54137 22.363189,8.63653 30.818469,0.18125 8.4553,-8.45529 8.36122,-22.27894 -0.18014,-30.8203 -4.27068,-4.27068 -9.86275,-6.42811 -15.44286,-6.4626 -5.58012,-0.0345 -11.149432,2.05591 -15.377079,6.28355 -3.351425,3.35141 -11.920749,11.22152 -14.246875,13.35309 l -2.110228,1.96114 c -1.458658,1.33689 -10.578493,9.68178 -14.35942,13.46271 -7.451736,7.45174 -19.396412,7.51731 -26.734311,0.17941 -7.337909,-7.33788 -7.27269,-19.2822 0.179049,-26.73394 3.725866,-3.72587 8.577142,-5.60612 13.412281,-5.63714 4.835144,-0.031 9.655632,1.78622 13.324589,5.45517 3.105185,3.10517 9.609361,9.08857 12.627389,11.85345 l 2.112785,-1.9637 c -3.316464,-3.04749 -9.821916,-9.0531 -12.699373,-11.93055 -4.227515,-4.22751 -9.796774,-6.31754 -15.376716,-6.28318 l -7.33e-4,0 c -5.579939,0.0346 -11.17011,2.19204 -15.44066,6.46259 z"
       id="path2826"
       inkscape:connector-curvature="0" />
    <path
       inkscape:connector-curvature="0"
       id="path2873"
       d="m 76.416395,127.14346 5.188831,-4.82192 2.056648,1.96882 -5.188828,4.82089 z"
       style="opacity:0.36500005;fill:#000000;stroke:none;stroke-width:0.26458332px;stroke-linecap:butt;stroke-linejoin:miter;stroke-opacity:1"
       sodipodi:nodetypes="ccccc" />
    <path
       sodipodi:nodetypes="ccccc"
       style="opacity:0.36500005;fill:#000000;stroke:none;stroke-width:0.26458332px;stroke-linecap:butt;stroke-linejoin:miter;stroke-opacity:1"
       d="m 69.169361,120.35478 5.188833,-4.82193 2.056648,1.96883 -5.188831,4.8209 z"
       id="path2875"
       inkscape:connector-curvature="0" />
  </g>
</svg>
