<?xml version="1.0" encoding="UTF-8" standalone="no"?>
<!-- Created with Inkscape (http://www.inkscape.org/) -->

<svg
   xmlns:dc="http://purl.org/dc/elements/1.1/"
   xmlns:cc="http://creativecommons.org/ns#"
   xmlns:rdf="http://www.w3.org/1999/02/22-rdf-syntax-ns#"
   xmlns:svg="http://www.w3.org/2000/svg"
   xmlns="http://www.w3.org/2000/svg"
   xmlns:xlink="http://www.w3.org/1999/xlink"
   xmlns:sodipodi="http://sodipodi.sourceforge.net/DTD/sodipodi-0.dtd"
   xmlns:inkscape="http://www.inkscape.org/namespaces/inkscape"
   width="210mm"
   height="297mm"
   viewBox="0 0 210 297"
   version="1.1"
   id="svg8"
   inkscape:version="0.92.2 5c3e80d, 2017-08-06"
   sodipodi:docname="letter-logo.svg">
  <defs
     id="defs2">
    <linearGradient
       inkscape:collect="always"
       id="linearGradient856">
      <stop
         style="stop-color:#ff0046;stop-opacity:1;"
         offset="0"
         id="stop852" />
      <stop
         style="stop-color:#ffd800;stop-opacity:1"
         offset="1"
         id="stop854" />
    </linearGradient>
    <linearGradient
       inkscape:collect="always"
       xlink:href="#linearGradient856"
       id="linearGradient858"
       x1="-167.75"
       y1="553.68359"
       x2="-36.5"
       y2="553.68359"
       gradientUnits="userSpaceOnUse" />
    <linearGradient
       inkscape:collect="always"
       xlink:href="#linearGradient856"
       id="linearGradient866"
       x1="-74"
       y1="583.02148"
       x2="-186.5"
       y2="583.01953"
       gradientUnits="userSpaceOnUse" />
  </defs>
  <sodipodi:namedview
     id="base"
     pagecolor="#ffffff"
     bordercolor="#666666"
     borderopacity="1.0"
     inkscape:pageopacity="0.0"
     inkscape:pageshadow="2"
     inkscape:zoom="1.4142136"
     inkscape:cx="-114.28571"
     inkscape:cy="590.71068"
     inkscape:document-units="px"
     inkscape:current-layer="layer1"
     showgrid="false"
     showborder="false"
     inkscape:object-paths="true"
     inkscape:snap-intersection-paths="true"
     inkscape:snap-smooth-nodes="true"
     inkscape:window-width="1280"
     inkscape:window-height="681"
     inkscape:window-x="0"
     inkscape:window-y="1"
     inkscape:window-maximized="1" />
  <metadata
     id="metadata5">
    <rdf:RDF>
      <cc:Work
         rdf:about="">
        <dc:format>image/svg+xml</dc:format>
        <dc:type
           rdf:resource="http://purl.org/dc/dcmitype/StillImage" />
        <dc:title></dc:title>
      </cc:Work>
    </rdf:RDF>
  </metadata>
  <g
     inkscape:label="Layer 1"
     inkscape:groupmode="layer"
     id="layer1">
    <path
       style="opacity:1;fill:url(#linearGradient866);fill-opacity:1;fill-rule:nonzero;stroke:none;stroke-width:1.61290324;stroke-linecap:round;stroke-linejoin:round;stroke-miterlimit:4;stroke-dasharray:none;stroke-dashoffset:0"
       d="M -111.5 508.01953 A 75 75 0 0 0 -186.5 583.01953 A 75 75 0 0 0 -111.5 658.01953 A 75 75 0 0 0 -36.5 583.01953 A 75 75 0 0 0 -111.5 508.01953 z M -111.5 545.51953 A 37.5 37.5 0 0 1 -74 583.01953 A 37.5 37.5 0 0 1 -111.5 620.51953 A 37.5 37.5 0 0 1 -149 583.01953 A 37.5 37.5 0 0 1 -111.5 545.51953 z "
       transform="scale(0.26458333)"
       id="path815" />
    <path
       style="opacity:1;fill:url(#linearGradient858);fill-opacity:1;fill-rule:nonzero;stroke:none;stroke-width:1.20967722;stroke-linecap:round;stroke-linejoin:round;stroke-miterlimit:4;stroke-dasharray:none;stroke-dashoffset:0"
       d="M -36.5 449.34766 C -57.274999 449.34766 -74 470.99677 -74 497.88867 L -74 583.02148 A 37.499997 37.499997 0 0 1 -111.5 620.51953 A 37.499997 37.499997 0 0 1 -149 583.01953 A 37.499997 37.499997 0 0 1 -114.15234 545.61328 A 56.249987 56.249987 0 0 0 -167.75 601.76953 A 56.249987 56.249987 0 0 0 -111.54297 658.01758 A 74.999998 74.999998 0 0 0 -111.5 658.01953 A 56.249987 56.249987 0 0 0 -105.88477 657.73828 A 74.999998 74.999998 0 0 0 -36.5 583.02148 L -36.5 449.34766 z "
       transform="scale(0.26458333)"
       id="path843" />
  </g>
</svg>
